<mxfile host="app.diagrams.net" agent="Mozilla/5.0 (Windows NT 10.0; Win64; x64; rv:128.0) Gecko/20100101 Firefox/128.0" version="26.2.5">
  <diagram name="Page-1" id="kbuYXMddShDO73vHORQ9">
    <mxGraphModel dx="1428" dy="731" grid="1" gridSize="10" guides="1" tooltips="1" connect="1" arrows="1" fold="1" page="1" pageScale="1" pageWidth="1169" pageHeight="827" math="0" shadow="0">
      <root>
        <mxCell id="0" />
        <mxCell id="1" parent="0" />
        <mxCell id="-GWlWYutQ0PuFY-TOrcu-1" value="" style="rounded=0;whiteSpace=wrap;html=1;" vertex="1" parent="1">
          <mxGeometry x="190" y="50" width="720" height="180" as="geometry" />
        </mxCell>
        <mxCell id="-GWlWYutQ0PuFY-TOrcu-2" value="" style="rounded=0;whiteSpace=wrap;html=1;" vertex="1" parent="1">
          <mxGeometry x="190" y="260" width="730" height="180" as="geometry" />
        </mxCell>
        <mxCell id="-GWlWYutQ0PuFY-TOrcu-3" value="&lt;font style=&quot;font-size: 19px;&quot;&gt;&lt;b&gt;Event streaming&lt;/b&gt;&lt;/font&gt;" style="text;html=1;align=center;verticalAlign=middle;whiteSpace=wrap;rounded=0;" vertex="1" parent="1">
          <mxGeometry x="200" y="50" width="150" height="30" as="geometry" />
        </mxCell>
        <mxCell id="-GWlWYutQ0PuFY-TOrcu-4" value="S3" style="sketch=0;pointerEvents=1;shadow=0;dashed=0;html=1;strokeColor=none;fillColor=#005F4B;labelPosition=center;verticalLabelPosition=bottom;verticalAlign=top;align=center;outlineConnect=0;shape=mxgraph.veeam2.s3_compatible;" vertex="1" parent="1">
          <mxGeometry x="990" y="130" width="160" height="160" as="geometry" />
        </mxCell>
        <mxCell id="-GWlWYutQ0PuFY-TOrcu-5" value="&lt;h1 style=&quot;margin-top: 0px;&quot;&gt;AutoMQ&lt;/h1&gt;&lt;ul&gt;&lt;li&gt;Kafka compatible&lt;/li&gt;&lt;li&gt;Zero disk&lt;/li&gt;&lt;li&gt;https://github.com/AutoMQ/automq&lt;/li&gt;&lt;/ul&gt;" style="text;html=1;whiteSpace=wrap;overflow=hidden;rounded=0;" vertex="1" parent="1">
          <mxGeometry x="210" y="90" width="240" height="120" as="geometry" />
        </mxCell>
        <mxCell id="-GWlWYutQ0PuFY-TOrcu-7" value="&lt;h1 style=&quot;margin-top: 0px;&quot;&gt;WarpStream&lt;/h1&gt;&lt;ul&gt;&lt;li&gt;Zero disk&lt;/li&gt;&lt;li&gt;Kafka compatible&lt;/li&gt;&lt;li&gt;https://github.com/warpstreamlabs&lt;br&gt;&lt;/li&gt;&lt;/ul&gt;" style="text;html=1;whiteSpace=wrap;overflow=hidden;rounded=0;" vertex="1" parent="1">
          <mxGeometry x="585" y="90" width="235" height="120" as="geometry" />
        </mxCell>
        <mxCell id="-GWlWYutQ0PuFY-TOrcu-9" value="&lt;font style=&quot;font-size: 19px;&quot;&gt;&lt;b&gt;DB relationnelle&lt;br&gt;&lt;/b&gt;&lt;/font&gt;" style="text;html=1;align=center;verticalAlign=middle;whiteSpace=wrap;rounded=0;" vertex="1" parent="1">
          <mxGeometry x="205" y="264" width="150" height="30" as="geometry" />
        </mxCell>
        <mxCell id="-GWlWYutQ0PuFY-TOrcu-10" value="&lt;h1 style=&quot;margin-top: 0px;&quot;&gt;Neon DB&lt;br&gt;&lt;/h1&gt;&lt;ul&gt;&lt;li&gt;Hybrid Zero disk/ ssd&lt;br&gt;&lt;/li&gt;&lt;li&gt;Compatible Postgres&lt;/li&gt;&lt;li&gt;https://neon.tech/&lt;br&gt;&lt;/li&gt;&lt;/ul&gt;" style="text;html=1;whiteSpace=wrap;overflow=hidden;rounded=0;" vertex="1" parent="1">
          <mxGeometry x="215" y="310" width="180" height="110" as="geometry" />
        </mxCell>
        <mxCell id="-GWlWYutQ0PuFY-TOrcu-11" value="" style="rounded=0;whiteSpace=wrap;html=1;" vertex="1" parent="1">
          <mxGeometry x="190" y="470" width="740" height="160" as="geometry" />
        </mxCell>
        <mxCell id="-GWlWYutQ0PuFY-TOrcu-12" value="&lt;font style=&quot;font-size: 19px;&quot;&gt;&lt;b&gt;Datalake house&lt;br&gt;&lt;/b&gt;&lt;/font&gt;" style="text;html=1;align=center;verticalAlign=middle;whiteSpace=wrap;rounded=0;" vertex="1" parent="1">
          <mxGeometry x="200" y="480" width="150" height="30" as="geometry" />
        </mxCell>
        <mxCell id="-GWlWYutQ0PuFY-TOrcu-13" value="&lt;h1 style=&quot;margin-top: 0px;&quot;&gt;Delta lake&lt;br&gt;&lt;/h1&gt;&lt;ul&gt;&lt;li&gt;Zero disk&lt;/li&gt;&lt;li&gt;Lié à Databricks&lt;br&gt;&lt;/li&gt;&lt;li&gt;https://delta.io/&lt;br&gt;&lt;/li&gt;&lt;/ul&gt;" style="text;html=1;whiteSpace=wrap;overflow=hidden;rounded=0;" vertex="1" parent="1">
          <mxGeometry x="585" y="520" width="200" height="100" as="geometry" />
        </mxCell>
        <mxCell id="-GWlWYutQ0PuFY-TOrcu-16" value="&lt;h1 style=&quot;margin-top: 0px;&quot;&gt;Iceberg&lt;br&gt;&lt;/h1&gt;&lt;ul&gt;&lt;li&gt;Zero disk&lt;/li&gt;&lt;li&gt;https://iceberg.apache.org/&lt;br&gt;&lt;/li&gt;&lt;/ul&gt;" style="text;html=1;whiteSpace=wrap;overflow=hidden;rounded=0;" vertex="1" parent="1">
          <mxGeometry x="225" y="520" width="200" height="100" as="geometry" />
        </mxCell>
        <mxCell id="-GWlWYutQ0PuFY-TOrcu-17" value="" style="rounded=0;whiteSpace=wrap;html=1;" vertex="1" parent="1">
          <mxGeometry x="190" y="660" width="740" height="180" as="geometry" />
        </mxCell>
        <mxCell id="-GWlWYutQ0PuFY-TOrcu-18" value="&lt;font style=&quot;font-size: 19px;&quot;&gt;&lt;b&gt;Data management&lt;br&gt;&lt;/b&gt;&lt;/font&gt;" style="text;html=1;align=center;verticalAlign=middle;whiteSpace=wrap;rounded=0;" vertex="1" parent="1">
          <mxGeometry x="205" y="670" width="185" height="30" as="geometry" />
        </mxCell>
        <mxCell id="-GWlWYutQ0PuFY-TOrcu-19" value="&lt;h1 style=&quot;margin-top: 0px;&quot;&gt;Amoro&lt;br&gt;&lt;/h1&gt;&lt;ul&gt;&lt;li&gt;Lakehouse management&lt;br&gt;&lt;/li&gt;&lt;li&gt;Zero disk ?&lt;br&gt;&lt;/li&gt;&lt;li&gt;https://amoro.apache.org/&lt;br&gt;&lt;/li&gt;&lt;/ul&gt;" style="text;html=1;whiteSpace=wrap;overflow=hidden;rounded=0;" vertex="1" parent="1">
          <mxGeometry x="225" y="710" width="200" height="100" as="geometry" />
        </mxCell>
        <mxCell id="-GWlWYutQ0PuFY-TOrcu-20" value="&lt;h1 style=&quot;margin-top: 0px;&quot;&gt;Polaris&lt;br&gt;&lt;/h1&gt;&lt;ul&gt;&lt;li&gt;Data catalog&lt;br&gt;&lt;/li&gt;&lt;li&gt;Zero disk ?&lt;br&gt;&lt;/li&gt;&lt;li&gt;https://polaris.apache.org/&lt;/li&gt;&lt;/ul&gt;" style="text;html=1;whiteSpace=wrap;overflow=hidden;rounded=0;" vertex="1" parent="1">
          <mxGeometry x="440" y="710" width="200" height="100" as="geometry" />
        </mxCell>
        <mxCell id="-GWlWYutQ0PuFY-TOrcu-21" value="&lt;h1 style=&quot;margin-top: 0px;&quot;&gt;Gravitino&lt;br&gt;&lt;/h1&gt;&lt;ul&gt;&lt;li&gt;Data catalog&lt;br&gt;&lt;/li&gt;&lt;li&gt;Zero disk ?&lt;br&gt;&lt;/li&gt;&lt;li&gt;https://gravitino.apache.org/&lt;br&gt;&lt;/li&gt;&lt;/ul&gt;" style="text;html=1;whiteSpace=wrap;overflow=hidden;rounded=0;" vertex="1" parent="1">
          <mxGeometry x="690" y="710" width="200" height="100" as="geometry" />
        </mxCell>
      </root>
    </mxGraphModel>
  </diagram>
</mxfile>
